<?xml version="1.0" standalone="yes"?>

<svg version="1.1" viewBox="0.0 0.0 986.0 327.0" fill="none" stroke="none" stroke-linecap="square" stroke-miterlimit="10" xmlns="http://www.w3.org/2000/svg" xmlns:xlink="http://www.w3.org/1999/xlink"><clipPath id="p.0"><path d="m0 0l986.0 0l0 327.0l-986.0 0l0 -327.0z" clip-rule="nonzero"></path></clipPath><g clip-path="url(#p.0)"><path fill="#000000" fill-opacity="0.0" d="m0 0l986.5407 0l0 327.10236l-986.5407 0z" fill-rule="nonzero"></path><path fill="#000000" fill-opacity="0.0" d="m3.887139 95.6273l629.22833 0l0 136.06299l-629.22833 0z" fill-rule="nonzero"></path><path fill="#ffffff" d="m100.10287 221.25879l0 -112.03126l38.437508 0q9.921875 0 17.1875 2.734375q7.265625 2.734375 10.9375 7.234375q3.671875 4.484375 5.265625 8.937508q1.609375 4.453125 1.609375 9.140625q0 13.125 -10.546875 20.3125q18.046875 8.515625 18.046875 28.28125q0 15.546875 -10.9375 25.46875q-10.9375 9.921875 -30.46875 9.921875l-39.531258 0zm14.375 -10.546875l22.421883 0q29.765625 0 29.765625 -24.84375q0 -11.328125 -6.875 -16.515625q-6.875 -5.203125 -21.40625 -5.515625l-23.906258 0l0 46.875zm0 -57.578125l21.328133 0q13.28125 0 18.3125 -3.625q5.046875 -3.640625 5.046875 -12.234375q0 -8.984375 -5.125 -13.203133q-5.109375 -4.21875 -18.234375 -4.21875q-2.421875 0.15625 -7.5 0.15625l-13.828133 0l0 33.125008zm84.60938 68.125l0 -80.0l9.609375 0l1.953125 5.625q10.234375 -7.8125 18.203125 -7.890625q8.671875 0 16.015625 3.828125l-5.234375 10.78125q-6.875 -2.421875 -12.65625 -2.421875q-7.96875 0 -14.609375 5.9375l0 64.140625l-13.28125 0zm63.046875 -40.3125q0 -19.21875 10.234375 -30.65625q10.234375 -11.453125 27.03125 -11.453125q33.4375 0 33.4375 47.1875l-57.421875 0q0.78125 9.921875 7.265625 17.703125q6.484375 7.765625 19.765625 7.765625q15.390625 0 26.40625 -5.078125l0 12.578125q-12.03125 4.609375 -24.6875 4.6875q-11.015625 0 -19.265625 -3.4375q-8.234375 -3.4375 -13.125 -9.453125q-4.875 -6.015625 -7.265625 -13.515625q-2.375 -7.5 -2.375 -16.328125zm13.75 -5.46875l43.203125 0q-1.09375 -10.703125 -5.9375 -17.578125q-4.84375 -6.875 -14.0625 -6.875q-9.140625 0 -15.546875 6.71875q-6.40625 6.71875 -7.65625 17.734375zm73.75 20.46875q0 -10.703125 7.8125 -17.890625q7.8125 -7.1875 21.953125 -7.1875l21.25 0l0 -6.09375q0 -7.34375 -2.890625 -10.46875q-2.890625 -3.125 -10.703125 -3.125q-5.78125 0 -17.578125 1.25l-10.78125 1.328125l0 -12.5q8.671875 -0.625 12.8125 -1.09375q14.0625 -1.25 20.9375 -1.328125q11.328125 0 16.640625 6.40625q5.3125 6.40625 5.3125 14.765625l0 61.25l-10.078125 0l-2.265625 -7.8125l-0.46875 0q-13.90625 9.453125 -26.71875 9.375q-12.1875 0 -18.71875 -8.234375q-6.515625 -8.25 -6.515625 -18.640625zm13.90625 0q0 6.25 3.28125 11.21875q3.28125 4.953125 10.78125 4.953125q5.3125 0 11.875 -2.296875q6.5625 -2.3125 11.015625 -5.359375l0.15625 0l0 -22.890625l-21.25 0q-15.859375 0 -15.859375 14.375zm74.453125 25.3125l0 -80.0l9.609375 0l1.640625 4.609375q8.984375 -7.03125 19.375 -7.03125q6.09375 0 12.21875 2.1875q6.140625 2.1875 9.65625 6.171875q9.296875 -8.28125 20.9375 -8.359375q9.4530945 0 17.453094 4.734375q8.015625 4.71875 8.015625 12.921875l0 64.765625l-13.59375 0l0 -58.4375q0 -11.71875 -13.9062195 -11.640625q-8.671875 0 -15.234375 5.3125l0 64.765625l-13.59375 0l0 -58.4375q0 -11.71875 -13.90625 -11.640625q-8.984375 0 -15.390625 5.46875l0 64.609375l-13.28125 0z" fill-rule="nonzero"></path><path fill="#009999" d="m656.97375 163.31102l8.700806 -26.5643l12.367432 -23.818901l17.404175 -18.320206l17.863525 -14.656166l19.236267 -12.36483l6.8687134 -11.451447l4.580078 -20.61155l2.2913208 -16.94488l18.776917 2.7480297l14.658813 6.412075l12.364807 6.868767l12.367432 17.863518l14.656189 22.90026l10.535461 9.619423l21.984253 15.572182l25.188965 16.947502l26.107605 24.272964l21.068237 28.855652l16.031494 29.771652l-15.1154785 16.48819l-26.564331 23.816269l-21.984253 17.86351l-22.443542 12.824158l-9.160095 13.740143l-17.863525 15.572174l-23.356934 12.824158l-21.068298 4.5800476l6.8687744 -23.356934l-20.608887 1.3726807l-26.107605 -4.5800476l-27.480347 -10.992126l-20.611511 -13.740143l-18.320251 -17.863525l-10.076111 -17.404205l-4.123352 -10.076111l-10.076111 14.199478l-16.48822 16.48819l-21.984253 15.112869l-21.527527 13.283447l-22.900269 11.908142l16.02887 -23.359589l13.283447 -19.236206l9.160156 -14.656174l7.328064 -16.48819l3.2073364 -15.572174l-1.8320312 -14.656174l-5.0393677 -14.656174l-11.908142 -15.1154785l-24.275574 -27.02362l-17.404175 -13.280846l-14.656189 -11.910759l23.816284 6.8713913l24.275574 9.160103l19.695557 9.16011l16.48816 9.160095l16.944885 10.076126z" fill-rule="nonzero"></path><path stroke="#009999" stroke-width="8.0" stroke-linejoin="round" stroke-linecap="butt" d="m656.97375 163.31102l8.700806 -26.5643l12.367432 -23.818901l17.404175 -18.320206l17.863525 -14.656166l19.236267 -12.36483l6.8687134 -11.451447l4.580078 -20.61155l2.2913208 -16.94488l18.776917 2.7480297l14.658813 6.412075l12.364807 6.868767l12.367432 17.863518l14.656189 22.90026l10.535461 9.619423l21.984253 15.572182l25.188965 16.947502l26.107605 24.272964l21.068237 28.855652l16.031494 29.771652l-15.1154785 16.48819l-26.564331 23.816269l-21.984253 17.86351l-22.443542 12.824158l-9.160095 13.740143l-17.863525 15.572174l-23.356934 12.824158l-21.068298 4.5800476l6.8687744 -23.356934l-20.608887 1.3726807l-26.107605 -4.5800476l-27.480347 -10.992126l-20.611511 -13.740143l-18.320251 -17.863525l-10.076111 -17.404205l-4.123352 -10.076111l-10.076111 14.199478l-16.48822 16.48819l-21.984253 15.112869l-21.527527 13.283447l-22.900269 11.908142l16.02887 -23.359589l13.283447 -19.236206l9.160156 -14.656174l7.328064 -16.48819l3.2073364 -15.572174l-1.8320312 -14.656174l-5.0393677 -14.656174l-11.908142 -15.1154785l-24.275574 -27.02362l-17.404175 -13.280846l-14.656189 -11.910759l23.816284 6.8713913l24.275574 9.160103l19.695557 9.16011l16.48816 9.160095l16.944885 10.076126z" fill-rule="nonzero"></path><path fill="#000000" fill-opacity="0.0" d="m860.79004 258.57874l-9.165344 16.503937" fill-rule="nonzero"></path><path stroke="#009999" stroke-width="8.0" stroke-linejoin="round" stroke-linecap="butt" d="m860.79004 258.57874l-9.165344 16.503937" fill-rule="nonzero"></path><path fill="#000000" fill-opacity="0.0" d="m788.42255 297.9672l5.0393677 -21.984253l6.8687744 -16.94751l6.4121094 -9.616791" fill-rule="nonzero"></path><path stroke="#009999" stroke-width="8.0" stroke-linejoin="round" stroke-linecap="butt" d="m788.42255 297.9672l5.0393677 -21.984253l6.8687744 -16.94751l6.4121094 -9.616791" fill-rule="nonzero"></path><path fill="#000000" fill-opacity="0.0" d="m645.1259 84.54593l286.96063 0l0 162.58269l-286.96063 0z" fill-rule="nonzero"></path><path fill="#ffffff" d="m725.53436 228.23726l0 -86.5l14.6875 0l0 86.5l-14.6875 0zm0 -107.78125l0 -13.359375l14.6875 0l0 13.359375l-14.6875 0zm51.766907 97.140625q-12.75 -13.265625 -12.75 -32.609375q0 -19.34375 12.796875 -32.609375q12.796875 -13.265625 32.8125 -13.265625q19.9375 0 32.90625 13.359375q12.96875 13.34375 12.96875 32.515625q0 19.171875 -12.96875 32.53125q-12.96875 13.34375 -32.90625 13.34375q-20.09375 0 -32.859375 -13.265625zm9.84375 -55.875q-8.65625 9.40625 -8.65625 23.265625q0 13.859375 8.65625 23.28125q8.65625 9.40625 23.015625 9.40625q14.203125 0 22.9375 -9.40625q8.75 -9.421875 8.75 -23.28125q0 -13.859375 -8.75 -23.265625q-8.734375 -9.421875 -22.9375 -9.421875q-14.359375 0 -23.015625 9.421875z" fill-rule="nonzero"></path></g></svg>

